<svg xmlns="http://www.w3.org/2000/svg" viewBox="0 0 367.08 454.65"><defs><style>.cls-1{fill:#8899a6;}.cls-2{fill:#fee300;}.cls-3{fill:#fbc00f;}.cls-4{fill:#008ed4;}.cls-5{fill:#f4900c;}.cls-6{fill:#66757f;}</style></defs><g id="Layer_2" data-name="Layer 2"><g id="Layer_1-2" data-name="Layer 1"><path class="cls-1" d="M57.22,246.17,36.58,233.22h0l-2.76-1.75a21.49,21.49,0,0,1-8.49,8.27L30.6,243,51,255.81l.12.07a5.74,5.74,0,0,0,7.9-1.81,5.64,5.64,0,0,0,.87-2.81A5.73,5.73,0,0,0,57.22,246.17Zm-3.41,2.63a2.22,2.22,0,1,1-1.67,2.66A2.23,2.23,0,0,1,53.81,248.8Z"/><path class="cls-1" d="M33.81,231.46a21.49,21.49,0,0,1-8.49,8.27l-7.45-4.63a11.08,11.08,0,0,1-2.35.83,11,11,0,0,1-13.14-8.25c-.27-1.2.58-3.08,2.22-2.05l4.91,3.08a4.85,4.85,0,0,0,5-2.56,4.82,4.82,0,0,0,.11-5.63l-4.92-3.09c-1.64-1-.32-2.61.89-2.89a11,11,0,0,1,13.14,8.25,1.91,1.91,0,0,1,.06.33,10.51,10.51,0,0,1,.21,2.15l9.56,6.06Z"/><path d="M314.25,229.16c2.3,2.34,2.3,4.69,1.15,5.84a5.47,5.47,0,0,1-5.85,0c-.94-.6-1.87-1.22-2.79-1.87a86.52,86.52,0,0,1-9.07-7.25,24,24,0,0,0-11.63-7l-21-7.21c-8.14-3.55-15.19-8.2-23.33-11.69a17.71,17.71,0,0,0-24.21,6.4l-.33.59a20.77,20.77,0,0,0-4.64,10.49,13.74,13.74,0,0,0,4.64,12.84C223,238.5,230,247.84,235.84,256c3.5,5.79,7,11.64,10.49,18.63a91.7,91.7,0,0,1,9.34,18.69,60.72,60.72,0,0,1,4.7,21v8.14c1.15,9.34,2.3,17.54,3.5,26.88a178.78,178.78,0,0,1,4.65,34.92,91.06,91.06,0,0,0,2.34,17.48,31.47,31.47,0,0,0,15.2,21c4.64,2.35,10.49,3.5,15.19,5.85a17.64,17.64,0,0,1,11.63,14c0,4.7-1.14,5.84-5.84,7a94.1,94.1,0,0,1-25.68,1.2c-12.84-1-24.54-1-37.32-1a21.9,21.9,0,0,1-8.2-2.29c-2.35-1.21-2.35-7.05-1.15-10.55a33.58,33.58,0,0,0-1.2-31.53c-2.3-4.64-4.65-10.49-7-15.14-2.35-5.84-4.65-10.54-7-16.39-1.15-3.55-3.5-8.19-4.7-11.69l-7.16-21.09a63.82,63.82,0,0,0-4.64-14,67.32,67.32,0,0,0-9.34-15.19c-1.21-2.35-3.5-2.35-3.5,1.15-1.2,5.84-1.2,12.89-2.35,18.68-1.15,8.2-1.15,16.4-2.35,23.39A25.13,25.13,0,0,1,175,371.66a132.23,132.23,0,0,0-18.69,17.49A168.9,168.9,0,0,1,138.79,402a42.13,42.13,0,0,0-17.54,17.54c-1.14,3.5,0,5.85,3.5,8.14s8.2,3.5,11.69,5.85a12.34,12.34,0,0,1,5.85,10.54,7.81,7.81,0,0,1-7,8.14,112.78,112.78,0,0,1-28,2.35c-5.85,0-9.35-4.69-12.85-9.34L77.05,417.12c-2.35-4.64-4.65-9.34,0-14a13.52,13.52,0,0,1,7-7.05,84.49,84.49,0,0,0,25.68-24.48c5.85-7,11.7-14.05,18.69-21a14.93,14.93,0,0,0,4.7-11.64,249.17,249.17,0,0,0-2.35-30.38c-1.15-5.85-2.35-12.84-3.5-18.69a60.07,60.07,0,0,0-11.69-24.53,61.72,61.72,0,0,1-11.75-23.06,52.71,52.71,0,0,1-1.2-23.33,68.5,68.5,0,0,1,7-19.84,69.84,69.84,0,0,0,5.84-14l.11-.27a95.37,95.37,0,0,0-10.49,11.69c-7,10.49-15.19,21-22.18,31.53A135.72,135.72,0,0,1,65.57,246.7,42.34,42.34,0,0,1,51,255.81l-.63.23c-2.35,0-5.84,1.15-8.19,0-5.85-2.35-10.49,0-16.4,1.15a26.73,26.73,0,0,1-24.53-3.5A12,12,0,0,1,0,250.19c0-1.2,2.35-2.35,3.5-3.49,4.7-1.21,10.49-3.56,15.19-4.7a21.53,21.53,0,0,0,15.12-10.54l.07-.12H33.6L24,225.27a10.51,10.51,0,0,0-.21-2.15c3.43-.19,7.86-2.27,11.2-2.27a31.1,31.1,0,0,0,21-12.9,66.08,66.08,0,0,0,10.49-24.48,74.2,74.2,0,0,1,19.83-36.22,46.08,46.08,0,0,1,17.43-11.48,25.75,25.75,0,0,0,10.49-11.69c3.5-8.14,7-15.19,10.5-23.33A58.45,58.45,0,0,1,147,75.06a73.12,73.12,0,0,1,22.4-9.34,34.3,34.3,0,0,0,21-15.19c2.3-3.5,3.5-8.2,5.85-11.69a37.14,37.14,0,0,1,14-12.84,47.43,47.43,0,0,1,17.48-3.5,18.62,18.62,0,0,1,16.39,9.34,43.73,43.73,0,0,1,8.15,33.88,67,67,0,0,1-4.65,14,61.71,61.71,0,0,0-5.84,12.84,7.51,7.51,0,0,0,0,7,112.93,112.93,0,0,1,3.49,26.89,32.79,32.79,0,0,0,17.49,29.18,147.91,147.91,0,0,0,23.38,11.69,88.5,88.5,0,0,1,21,15.14,110.9,110.9,0,0,1,16.39,16.39,103.93,103.93,0,0,1,7.56,10l-17.34,17.35-.15.14-.56.53v0A4.08,4.08,0,0,0,314.25,229.16Z"/><path d="M334,237.35c-1.2,2.3-3.5,4.65-4.7,7-2.29,2.35-3.5,2.35-5.79,0a8.58,8.58,0,0,1-1.15-5.85,23.08,23.08,0,0,0-.06-4.4,22.73,22.73,0,0,0-1.09-4.94c-1.2-3.5-2.34-4.65-5.84-3.5-.86,0-1.08,0-1.64.48l17.34-17.35c1.9,2.8,3.66,5.7,5.28,8.67a19.69,19.69,0,0,1,.69,1.9A20.19,20.19,0,0,1,334,237.35Z"/><path class="cls-2" d="M265.93,60a39.3,39.3,0,0,1-17.67,1.81,47.62,47.62,0,0,1-13.44-3.56,240.05,240.05,0,0,1-24.19-11.65c-.08,0-.13-.14-.2-.21.84-.5,1.79-.1,2.7-.34s2.47-.32,2.58-1.41-1.35-1.43-2.26-1.73a38.54,38.54,0,0,1-8.9-4.49,1.48,1.48,0,0,1-.74-1.81c1.13-4.53,1.77-9.16,3.26-13.62a57.92,57.92,0,0,1,9-17.54,2.55,2.55,0,0,1,1.77-1.08A24.08,24.08,0,0,1,234,7.93c6.83,4.2,10.87,10.53,13.21,18.1A76.81,76.81,0,0,1,249,34.44a3.13,3.13,0,0,0,.23-.71A121.33,121.33,0,0,0,248.61,19c-.45-5.15-3-8.6-7.39-11.12A68.13,68.13,0,0,0,233.53,4c-.51-.21-1.23-.38-1-1.11s.94-.41,1.48-.33l.45.1A34.29,34.29,0,0,1,250,11.71c.31.33.7,1.13,1.16.7s-.26-.95-.6-1.32A30.6,30.6,0,0,0,242.31,5,43.12,43.12,0,0,0,231.44.88,44.57,44.57,0,0,1,238,2.44a43.52,43.52,0,0,1,15.26,8.42,19.68,19.68,0,0,1,1.43,1.6c.17.18.39.41.66.19a.46.46,0,0,0,0-.69,9.94,9.94,0,0,0-.8-.92,36.77,36.77,0,0,0-11.12-7.36C242,3,240.47,2.39,239,1.75a46.75,46.75,0,0,1,15.7,7.1c3.25,2.24,4.57,5.5,5,9.18a38.87,38.87,0,0,0,1.79,8.31,29.77,29.77,0,0,1,1.61,9.32c0,.56-.06,1.19.48,1.56,1.68,1.16,1.55,2.84,1.3,4.53a3.14,3.14,0,0,0,1.44,3.49,17.73,17.73,0,0,1,5.34,6.27c1.29,2.48,1,4-1.13,5.8A23.52,23.52,0,0,1,265.93,60ZM227.47,43.71c-.57,1.72-1.37,3.41-.74,5.29C226.55,47.18,228.09,45.6,227.47,43.71ZM238.08,47l-.13-.08L237,51l.14,0Z"/><path class="cls-3" d="M239,1.75c1.5.64,3,1.25,4.49,1.93A36.77,36.77,0,0,1,254.58,11a9.94,9.94,0,0,1,.8.92.46.46,0,0,1,0,.69c-.27.22-.49,0-.66-.19a19.68,19.68,0,0,0-1.43-1.6A43.52,43.52,0,0,0,238,2.44,44.57,44.57,0,0,0,231.44.88,43.12,43.12,0,0,1,242.31,5a30.6,30.6,0,0,1,8.24,6.12c.34.37,1.16.79.6,1.32s-.85-.37-1.16-.7a34.29,34.29,0,0,0-15.51-9l-.45-.1c-.54-.08-1.24-.39-1.48.33s.47.9,1,1.11a68.13,68.13,0,0,1,7.69,3.85c4.35,2.52,6.94,6,7.39,11.12a121.33,121.33,0,0,1,.66,14.76,3.13,3.13,0,0,1-.23.71A76.81,76.81,0,0,0,247.25,26c-2.34-7.57-6.38-13.9-13.21-18.1a24.08,24.08,0,0,0-16.19-3.52,2.55,2.55,0,0,0-1.77,1.08,57.92,57.92,0,0,0-9,17.54c-1.49,4.46-2.13,9.09-3.26,13.62a1.48,1.48,0,0,0,.74,1.81,38.54,38.54,0,0,0,8.9,4.49c.91.3,2.37.67,2.26,1.73s-1.55,1.13-2.58,1.41-1.86-.16-2.7.34a60.83,60.83,0,0,1-12.74-8.9c-2-2-3.17-4.08-2.1-7a36.45,36.45,0,0,0,1-4.33,5.29,5.29,0,0,1,.66,4.11,20.31,20.31,0,0,0-.83,4.51c2.46-1.16,3.33-6.08,1.75-9.34,1.22-2.53,2-5.24,3.41-7.71a33.15,33.15,0,0,1,9.53-11.09,13.19,13.19,0,0,0,1.22-1.15v0l.35-.38C220.78-1.34,229.76-.74,239,1.75Z"/><path class="cls-4" d="M212.73,5.14l-.35.38Z"/><path class="cls-2" d="M198.22,25.49c1.58,3.26.71,8.18-1.75,9.34a20.31,20.31,0,0,1,.83-4.51,5.29,5.29,0,0,0-.66-4.11C196.79,25.13,197.63,25.58,198.22,25.49Z"/><path class="cls-3" d="M227.47,43.71c.62,1.89-.92,3.47-.74,5.29C226.1,47.12,226.9,45.43,227.47,43.71Z"/><path class="cls-3" d="M238.08,47l-.9,4.1L237,51l.91-4.14Z"/><path class="cls-5" d="M351.43,205,345.48,211l-8.41,8.41L303.33,253.1a5.86,5.86,0,1,1-8.27-8.27l11.7-11.7c.92.65,1.85,1.27,2.79,1.87a5.47,5.47,0,0,0,5.85,0c1.15-1.15,1.15-3.5-1.15-5.84a4.08,4.08,0,0,1-1.2-2.32l.56-.56.15-.14,17.34-17.35,12.06-12.06a5.86,5.86,0,1,1,8.27,8.27Z"/><path class="cls-6" d="M324.81,188.21c4.13,0,6.2,0,10.33,4.13s2.07,10.34,2.07,10.34l8.27,8.27c2.39-1.19,4.77.37,6.37,1.91l-.17.16a2.88,2.88,0,0,0,0,4.14l2.07,2.06a2.87,2.87,0,0,0,4.14,0l8.27-8.27a2.85,2.85,0,0,0,0-4.13l-2.07-2.07a2.85,2.85,0,0,0-4.13,0l-14.48-14.47c-10.34-10.34-22.74-4.14-22.74-4.14S320.67,188.21,324.81,188.21Z"/></g></g></svg>